<svg xmlns="http://www.w3.org/2000/svg" width="201" height="36" fill="none"><path fill="#00341C" d="M21.54 27.494q-.119-.718-.238-2.314-.16-2.59-.499-4.427a8.8 8.8 0 0 0-1.416-3.411q-1.077-1.575-3.112-1.935v-.08a7.3 7.3 0 0 0 2.773-1.376 6.5 6.5 0 0 0 1.875-2.433q.657-1.456.658-3.211 0-3.99-2.493-6.104Q16.594.09 11.888.09H0v28.522h4.428V17.44h7.3q2.232 0 3.35 1.257a5.87 5.87 0 0 1 1.417 2.912q.299 1.656.339 4.089.039 1.275.12 1.974t.319.938h4.707v-.28q-.319-.12-.44-.837m-7.24-14.42q-1.376.578-3.37.578H4.428V3.879h6.582q3.232 0 4.687 1.196 1.455 1.198 1.456 3.55 0 1.597-.738 2.733-.74 1.137-2.114 1.715M39.54 8.267V28.61h3.948V8.267zm-.08 2.513q-.88-1.436-2.454-2.274-1.576-.838-3.81-.838-2.592 0-4.647 1.297-2.054 1.297-3.25 3.73-1.198 2.434-1.198 5.744 0 3.27 1.197 5.724 1.198 2.452 3.251 3.73 2.054 1.275 4.687 1.276 2.154 0 3.73-.857c1.05-.571 1.883-1.272 2.493-2.094h1.077V10.78zm-.6 11.648q-.675 1.676-1.974 2.593-1.296.916-3.011.917-1.835 0-3.132-1.017-1.296-1.017-1.934-2.732-.64-1.717-.639-3.75 0-2.076.638-3.77.639-1.696 1.935-2.732t3.132-1.037q1.715 0 3.011.917 1.298.917 1.975 2.613.677 1.694.678 4.009 0 2.314-.678 3.989M85.889.09H81.14L70.53 28.61h4.627l2.393-6.9h11.89l2.353 6.9h4.787zm-7.061 17.95 4.667-13.922h.08l4.587 13.922zm33.064-9.773v18.988q0 2.83-1.396 4.148t-4.228 1.317q-2.315-.002-3.531-.878-1.217-.88-1.535-2.393h-4.07q.2 1.873 1.277 3.33 1.078 1.456 3.072 2.294t4.787.838q4.546 0 7.04-2.214t2.493-6.722V8.267zm-.08 2.393a7.9 7.9 0 0 0-2.513-2.154q-1.515-.838-3.749-.838-2.592.001-4.628 1.157-2.034 1.156-3.191 3.39-1.156 2.236-1.157 5.426.001 3.152 1.157 5.405t3.191 3.39 4.628 1.138q2.232 0 3.769-.858 1.537-.856 2.493-2.214h.359V10.66zm-.598 10.67q-.677 1.497-1.935 2.255-1.257.756-3.011.758-2.753 0-4.189-1.855t-1.436-4.847q0-1.956.618-3.47.619-1.515 1.875-2.394 1.258-.878 3.132-.877 1.755-.001 3.011.757 1.258.76 1.935 2.274t.678 3.71-.678 3.69M138.148 18q0-3.153-1.117-5.485-1.118-2.335-3.311-3.61-2.195-1.276-5.226-1.277-3.07.001-5.345 1.337t-3.491 3.79q-1.216 2.453-1.216 5.644 0 3.152 1.196 5.604 1.197 2.454 3.451 3.83t5.405 1.376q3.829 0 6.203-1.855 1.91-1.49 2.822-3.797l-3.6-1.169q-.238.758-.837 1.596-.598.837-1.716 1.436-1.117.598-2.832.598-1.955 0-3.331-.937a5.73 5.73 0 0 1-2.054-2.474 8.1 8.1 0 0 1-.676-3.131h15.635q.04-.358.04-1.476m-15.662-1.596q.088-1.471.743-2.672a5.3 5.3 0 0 1 2.114-2.154q1.357-.759 3.032-.758 1.675 0 2.991.718a4.8 4.8 0 0 1 1.995 1.994q.677 1.275.678 2.872zM65.987 18q0-3.153-1.117-5.485-1.118-2.335-3.311-3.61-2.194-1.276-5.226-1.277-3.071.001-5.345 1.337t-3.49 3.79q-1.217 2.453-1.217 5.644 0 3.152 1.196 5.604 1.197 2.454 3.45 3.83 2.255 1.376 5.406 1.376 3.829 0 6.203-1.855 1.91-1.49 2.822-3.797l-3.6-1.169q-.24.758-.838 1.596-.597.837-1.715 1.436-1.117.598-2.832.598-1.955 0-3.33-.937a5.73 5.73 0 0 1-2.055-2.474 8.1 8.1 0 0 1-.676-3.131h15.635q.04-.358.04-1.476m-15.662-1.596q.089-1.471.742-2.672a5.3 5.3 0 0 1 2.115-2.154q1.357-.759 3.031-.758 1.676 0 2.992.718a4.8 4.8 0 0 1 1.995 1.994q.677 1.275.678 2.872zm106.04-7q-1.893-1.736-4.886-1.736-2.432 0-4.089.878c-1.105.583-1.975 1.344-2.613 2.274h-1.476v5.305h1.396q0-1.518.678-2.672.68-1.156 1.935-1.816 1.258-.657 2.892-.658 2.115 0 3.112 1.237t.997 3.35v13.045h3.949V14.53q0-3.392-1.895-5.126m-15.577-1.137V28.61h3.909V8.267zm35.421 14.039 3.645 1.181a8.97 8.97 0 0 1-2.858 3.845c-2.73 2.279-8.426 2.513-11.543.521-3.234-1.95-4.739-5.552-4.727-9.414-.012-3.862 1.493-7.465 4.727-9.414 3.117-1.992 8.813-1.758 11.543.52a8.97 8.97 0 0 1 2.858 3.845l-3.645 1.182c-.412-1.23-1.269-2.403-2.583-3.067-1.648-.905-4.782-.83-6.258.432-1.94 1.495-2.553 4.041-2.573 6.502.02 2.46.633 5.006 2.573 6.502 1.476 1.262 4.61 1.336 6.258.431 1.314-.663 2.171-1.837 2.583-3.066m19.409-14.039-5.665 15.517h-.08L183.97 8.267h-4.269l8.218 20.145q-.322 1.474-1.017 2.373-.7.897-1.476 1.256a4 4 0 0 1-1.696.36q-.64 0-1.675-.12v3.191q1.316.279 2.513.28 1.594-.001 2.832-.619 1.236-.62 2.254-2.074 1.017-1.458 2.014-3.97l7.979-20.822z"/></svg>